<svg width="183" height="35" viewBox="0 0 183 35" fill="none" xmlns="http://www.w3.org/2000/svg">
<path d="M28.7109 33.6953C28.1641 33.1016 27.7969 32.4375 27.6094 31.7031C27.4219 30.9688 27.3281 30.0625 27.3281 28.9844C27.3281 27.8906 27.5 26.4688 27.8438 24.7188C28.2969 22.4219 29.1172 19.4531 30.3047 15.8125C29.7109 15.9062 28.875 16.0547 27.7969 16.2578C26.7344 16.4453 25.9844 16.5703 25.5469 16.6328C24.2188 22.7578 21.8281 27.5078 18.375 30.8828C17.1875 32.0547 15.7734 33 14.1328 33.7188C12.5078 34.4375 10.7266 34.7969 8.78906 34.7969C6.85156 34.7969 5.21094 34.2344 3.86719 33.1094C2.52344 31.9844 1.85156 30.4766 1.85156 28.5859C1.85156 26.6953 2.61719 24.7578 4.14844 22.7734C1.61719 20.4141 0.351562 17.625 0.351562 14.4062C0.351562 12.4844 0.703125 10.7266 1.40625 9.13281C2.125 7.53906 3.07031 6.20312 4.24219 5.125C5.42969 4.04688 6.80469 3.13281 8.36719 2.38281C11.3359 0.960937 14.6328 0.25 18.2578 0.25H30.9844C31.2656 0.25 31.4688 0.382813 31.5938 0.648438C31.5781 0.757813 31.5234 0.859375 31.4297 0.953125C31.3516 1.04688 31.2969 1.13281 31.2656 1.21094C29.2969 3.57031 27.7656 6.90625 26.6719 11.2188C26.4219 12.1719 26.125 13.4297 25.7812 14.9922L30.9375 14.125C33.4688 8.70312 36.2344 5.125 39.2344 3.39062C40.2188 2.8125 41.1562 2.52344 42.0469 2.52344C42.9375 2.52344 43.6797 2.75 44.2734 3.20312C44.8828 3.64063 45.1875 4.35156 45.1875 5.33594C45.1875 6.30469 44.8359 7.33594 44.1328 8.42969C43.4453 9.52344 42.5625 10.4844 41.4844 11.3125C39.3281 12.9531 37.125 14.1484 34.875 14.8984C34.1406 16.5859 33.3594 19.1094 32.5312 22.4688C31.7188 25.8125 31.3125 28.2031 31.3125 29.6406C31.3125 31.0781 31.6172 31.7969 32.2266 31.7969C33.1172 31.7969 34.2969 30.7734 35.7656 28.7266L37.0781 29.9688C36.25 31.2031 35.2891 32.2812 34.1953 33.2031C33.1172 34.125 32.0703 34.5859 31.0547 34.5859C30.0547 34.5859 29.2734 34.2891 28.7109 33.6953ZM3.09375 15.4609C3.09375 17.8203 3.82812 19.8906 5.29688 21.6719C7.25 19.875 9.65625 18.4688 12.5156 17.4531C15.375 16.4375 18.2812 15.8125 21.2344 15.5781C22.7031 8.85938 24.4141 4.32812 26.3672 1.98438C25.1797 1.79688 23.7656 1.70312 22.125 1.70312C20.4844 1.70312 18.9609 1.8125 17.5547 2.03125C16.1484 2.23438 14.7344 2.55469 13.3125 2.99219C11.8906 3.42969 10.5703 4.02344 9.35156 4.77344C8.14844 5.52344 7.07812 6.39062 6.14062 7.375C4.10938 9.45312 3.09375 12.1484 3.09375 15.4609ZM5.4375 23.6875C4.28125 25.2969 3.70312 26.8203 3.70312 28.2578C3.70312 29.6797 4.09375 30.8672 4.875 31.8203C5.67188 32.7734 6.71875 33.25 8.01562 33.25C9.32812 33.25 10.5312 33.0156 11.625 32.5469C12.7188 32.0625 13.6875 31.3906 14.5312 30.5312C15.375 29.6562 16.1406 28.7109 16.8281 27.6953C17.5156 26.6641 18.125 25.5156 18.6562 24.25C19.625 21.9531 20.4062 19.6172 21 17.2422C14.4219 17.7891 9.60156 19.5703 6.53906 22.5859C7.85156 23.2891 9.05469 23.6406 10.1484 23.6406C11.2578 23.6406 12.0078 23.625 12.3984 23.5938L12.9375 24.8359C12.125 24.9297 11.2891 24.9766 10.4297 24.9766C8.60156 24.9766 6.9375 24.5469 5.4375 23.6875ZM42.5391 4C41.8828 4 41.1719 4.34375 40.4062 5.03125C39.6562 5.71875 38.9531 6.58594 38.2969 7.63281C37.1875 9.44531 36.2812 11.1953 35.5781 12.8828C37.1562 12.2891 38.5703 11.4922 39.8203 10.4922C42.1797 8.60156 43.3594 6.88281 43.3594 5.33594C43.3594 4.44531 43.0859 4 42.5391 4ZM38.6953 28.4219C38.6953 27.25 38.9766 26.125 39.5391 25.0469C40.1172 23.9531 40.8594 23.0312 41.7656 22.2812C43.7656 20.6562 45.8047 19.8438 47.8828 19.8438C49.9609 19.8438 51.6641 20.3984 52.9922 21.5078C54.3203 22.6172 54.9844 24.0078 54.9844 25.6797C54.9844 27.3359 54.5234 28.8281 53.6016 30.1562C52.6953 31.4844 51.4922 32.5234 49.9922 33.2734C48.4922 34.0078 46.8516 34.375 45.0703 34.375C43.3047 34.375 41.7969 33.8203 40.5469 32.7109C39.3125 31.5859 38.6953 30.1562 38.6953 28.4219ZM46.3594 32.9219C47.0781 32.9219 47.75 32.6875 48.375 32.2188C49.0156 31.75 49.5 31.1406 49.8281 30.3906C50.4688 28.9531 50.7891 27.4688 50.7891 25.9375C50.7891 24.4062 50.5078 23.25 49.9453 22.4688C49.3828 21.6719 48.5859 21.2734 47.5547 21.2734C46.5234 21.2734 45.5 21.9453 44.4844 23.2891C43.4844 24.6328 42.9844 26.3438 42.9844 28.4219C42.9844 31.4219 44.1094 32.9219 46.3594 32.9219ZM71.6016 23.7812L71.4609 28.0938C71.4609 30.9375 71.7969 32.3594 72.4688 32.3594C73.1406 32.3594 73.8906 31.8828 74.7188 30.9297C75.5625 29.9609 76.2734 28.7891 76.8516 27.4141C77.4453 26.0391 77.7422 24.7969 77.7422 23.6875C77.5859 23.8125 77.2188 23.875 76.6406 23.875C76.0781 23.875 75.6094 23.6953 75.2344 23.3359C74.8594 22.9766 74.6719 22.5234 74.6719 21.9766C74.6719 21.4297 74.875 20.9375 75.2812 20.5C75.7031 20.0625 76.3281 19.8438 77.1562 19.8438C77.9844 19.8438 78.6562 20.1094 79.1719 20.6406C79.6875 21.1719 79.9453 21.9062 79.9453 22.8438C79.9453 23.7656 79.7422 24.875 79.3359 26.1719C78.9453 27.4688 78.4062 28.7344 77.7188 29.9688C77.0312 31.2031 76.1328 32.25 75.0234 33.1094C73.9297 33.9531 72.7578 34.375 71.5078 34.375C70.3984 34.375 69.6094 33.7344 69.1406 32.4531C68.75 31.3906 68.5312 30.4609 68.4844 29.6641C68.4375 28.8516 68.3984 28.2188 68.3672 27.7656C66.2266 31.0469 64.3984 33.0781 62.8828 33.8594C62.2109 34.2031 61.5312 34.375 60.8438 34.375C59.3125 34.375 58.5469 33.4766 58.5469 31.6797C58.5469 30.6641 58.8359 29.2891 59.4141 27.5547C60.0078 25.8047 60.3047 24.6875 60.3047 24.2031C60.3047 23.7188 60.1641 23.4766 59.8828 23.4766C59.4609 23.4766 58.625 24.4922 57.375 26.5234L55.8516 25.6562C58.1484 21.7812 60.2578 19.8438 62.1797 19.8438C62.6953 19.8438 63.1406 20.0391 63.5156 20.4297C63.9062 20.8047 64.1016 21.4297 64.1016 22.3047C64.1016 23.1641 63.7891 24.7578 63.1641 27.0859C62.5391 29.4141 62.2266 30.6484 62.2266 30.7891C62.2266 31.4297 62.4297 31.75 62.8359 31.75C63.2422 31.75 63.8438 31.2344 64.6406 30.2031C65.4531 29.1719 66.2344 28.0312 66.9844 26.7812C68.9375 23.4688 70.25 21.8125 70.9219 21.8125C71.375 21.8125 71.6016 22.4688 71.6016 23.7812ZM131.391 27.3672L132.586 28.375C131.867 30.1719 130.914 31.6484 129.727 32.8047C128.539 33.9609 127.352 34.5391 126.164 34.5391C124.977 34.5391 124.125 34.1562 123.609 33.3906C123.109 32.625 122.859 31.6562 122.859 30.4844C122.859 29.3125 123.219 27.4297 123.938 24.8359C124.672 22.2422 125.469 19.75 126.328 17.3594C128.656 10.9844 129.82 6.89062 129.82 5.07812C129.82 4.03125 129.484 3.50781 128.812 3.50781C126.141 3.50781 122.812 7.8125 118.828 16.4219C117.219 19.8906 115.953 22.8047 115.031 25.1641C113.125 30.1016 111.984 33.0469 111.609 34H106.383L108.539 28.375C111.102 21.8594 112.984 15.8047 114.188 10.2109C114.656 8.08594 114.891 6.38281 114.891 5.10156C114.891 3.14844 114.375 2.17188 113.344 2.17188C112.312 2.17188 111.148 2.96094 109.852 4.53906C108.555 6.10156 107.312 8.0625 106.125 10.4219C104.938 12.7812 103.75 15.3359 102.562 18.0859C101.375 20.8359 100.344 23.3906 99.4688 25.75C97.4531 31.25 96.4141 34 96.3516 34H91.7578L94.3828 26.6641C96.7266 20.6172 98.1562 15.8594 98.6719 12.3906C98.9219 10.7812 99.0469 9.14062 99.0469 7.46875C99.0469 5.79688 98.6172 4.39844 97.7578 3.27344C96.8984 2.13281 95.7188 1.5625 94.2188 1.5625C92.7188 1.5625 91.4219 1.88281 90.3281 2.52344C89.25 3.14844 88.3594 3.94531 87.6562 4.91406C86.9531 5.88281 86.3594 6.96875 85.875 8.17188C84.9531 10.4062 84.4922 12.5859 84.4922 14.7109C84.4922 19.2578 85.5312 23.2578 87.6094 26.7109L86.6016 27.4609C85.4766 25.6641 84.6172 23.6484 84.0234 21.4141C83.4453 19.1641 83.1562 17.2031 83.1562 15.5312C83.1562 13.8594 83.2812 12.3828 83.5312 11.1016C83.7812 9.80469 84.1953 8.5 84.7734 7.1875C85.3516 5.875 86.0625 4.71094 86.9062 3.69531C87.7656 2.66406 88.8594 1.82812 90.1875 1.1875C91.5312 0.53125 92.9375 0.203125 94.4062 0.203125C95.875 0.203125 97.1094 0.484375 98.1094 1.04688C99.125 1.60938 99.9219 2.36719 100.5 3.32031C101.641 5.19531 102.211 7.46875 102.211 10.1406C102.211 12.8125 101.375 16.7031 99.7031 21.8125C100.281 20.2812 100.703 19.2109 100.969 18.6016C101.25 17.9922 101.578 17.2422 101.953 16.3516C102.344 15.4609 102.648 14.7656 102.867 14.2656C103.086 13.75 103.422 13.0078 103.875 12.0391C104.328 11.0547 104.719 10.25 105.047 9.625C105.391 8.98438 105.82 8.21094 106.336 7.30469C106.867 6.38281 107.352 5.625 107.789 5.03125C108.227 4.4375 108.727 3.8125 109.289 3.15625C109.867 2.48437 110.422 1.95313 110.953 1.5625C112.156 0.65625 113.32 0.203125 114.445 0.203125C117.102 0.203125 118.43 1.98438 118.43 5.54688C118.43 7.79688 117.984 10.5859 117.094 13.9141C116.797 15.0234 116.383 16.4609 115.852 18.2266C115.336 19.9766 115.047 20.9766 114.984 21.2266C115.672 19.9609 116.57 17.9844 117.68 15.2969C118.789 12.6094 119.766 10.4922 120.609 8.94531C121.453 7.39844 122.297 6.07812 123.141 4.98438C123.984 3.89062 124.992 2.97656 126.164 2.24219C127.352 1.50781 128.523 1.14062 129.68 1.14062C130.852 1.14062 131.773 1.51562 132.445 2.26562C133.133 3.01562 133.477 4.01563 133.477 5.26562C133.477 6.51562 133.258 8.03906 132.82 9.83594C132.383 11.6172 131.844 13.3906 131.203 15.1562C130.562 16.9219 129.922 18.6797 129.281 20.4297C127.703 24.6641 126.859 27.9531 126.75 30.2969C126.75 31.2969 127.008 31.7969 127.523 31.7969C128.055 31.7969 128.68 31.3438 129.398 30.4375C130.117 29.5312 130.781 28.5078 131.391 27.3672ZM146.836 20.3594H150.492L148.641 27.3672C148.344 28.3516 148.195 29.25 148.195 30.0625C148.195 30.8594 148.336 31.2578 148.617 31.2578C148.898 31.2578 149.281 31.0156 149.766 30.5312C150.266 30.0312 150.688 29.5312 151.031 29.0312L151.57 28.2812L152.578 29.2188C152.062 30.2188 151.406 31.1328 150.609 31.9609C149.062 33.5703 147.719 34.375 146.578 34.375C145.234 34.375 144.562 33.3359 144.562 31.2578C144.562 30.9141 144.578 30.6562 144.609 30.4844C144.375 31.2812 143.93 31.9844 143.273 32.5938C142.023 33.7812 140.609 34.375 139.031 34.375C137.469 34.375 136.211 33.8438 135.258 32.7812C134.32 31.7031 133.852 30.3594 133.852 28.75C133.852 26.25 134.664 24.1406 136.289 22.4219C137.914 20.7031 139.82 19.8438 142.008 19.8438C143.102 19.8438 144.008 20.1484 144.727 20.7578C145.445 21.3516 145.914 22.1328 146.133 23.1016L146.836 20.3594ZM142.922 21.8594C142.016 21.8594 141.164 22.2422 140.367 23.0078C139.586 23.7578 138.984 24.6719 138.562 25.75C138.141 26.8125 137.93 27.8516 137.93 28.8672C137.93 29.8828 138.148 30.7031 138.586 31.3281C139.039 31.9531 139.727 32.2656 140.648 32.2656C141.586 32.2656 142.43 31.8438 143.18 31C144.602 29.375 145.312 27.4453 145.312 25.2109C145.312 22.9766 144.516 21.8594 142.922 21.8594ZM157.031 20.3594C158.641 15.3594 160.281 11.1719 161.953 7.79688L164.859 8.03125C164.688 8.53125 164.266 9.73438 163.594 11.6406C162.141 15.8438 161.203 18.75 160.781 20.3594H164.461L164.086 21.9062H160.289C158.852 26.3438 158.133 29.0469 158.133 30.0156C158.133 30.9688 158.227 31.4453 158.414 31.4453C158.617 31.4453 158.797 31.4062 158.953 31.3281C159.375 31.0938 160.281 29.9531 161.672 27.9062L162.633 28.7734C161.586 30.6797 160.508 32.0938 159.398 33.0156C158.289 33.9219 157.375 34.375 156.656 34.375C155.938 34.375 155.391 34.125 155.016 33.625C154.656 33.125 154.477 32.4844 154.477 31.7031C154.477 29.7188 155.172 26.4531 156.562 21.9062H154.102L154.477 20.3594H157.031ZM174.492 31.8438C174.492 31.0312 174.82 29.7266 175.477 27.9297C176.133 26.1328 176.461 24.8516 176.461 24.0859C176.461 23.3047 176.188 22.9141 175.641 22.9141C175.109 22.9141 174.461 23.2969 173.695 24.0625C172.93 24.8125 172.195 25.7344 171.492 26.8281C170.336 28.5938 169.172 30.6094 168 32.875L167.391 34H164.016C164.781 28.3438 165.516 24.1562 166.219 21.4375C166.922 18.7188 167.594 16.3984 168.234 14.4766C168.875 12.5547 169.562 10.8516 170.297 9.36719C171.953 5.96094 173.859 3.4375 176.016 1.79688L177.797 2.61719C176.125 4.28906 174.586 7.23438 173.18 11.4531C171.789 15.6562 170.242 21.4609 168.539 28.8672C168.633 28.7109 168.82 28.3828 169.102 27.8828C169.398 27.3672 169.625 26.9844 169.781 26.7344C169.938 26.4688 170.172 26.0781 170.484 25.5625C170.812 25.0469 171.086 24.6406 171.305 24.3438C171.523 24.0312 171.805 23.6484 172.148 23.1953C172.508 22.7422 172.82 22.3828 173.086 22.1172C173.367 21.8359 173.695 21.5391 174.07 21.2266C174.445 20.8984 174.805 20.6406 175.148 20.4531C175.945 20.0469 176.797 19.8438 177.703 19.8438C178.609 19.8438 179.289 20.0938 179.742 20.5938C180.211 21.0938 180.445 21.7656 180.445 22.6094C180.445 23.4531 180.055 24.875 179.273 26.875C178.492 28.8594 178.102 30.0859 178.102 30.5547C178.102 31.0234 178.227 31.2578 178.477 31.2578C179.133 31.2578 180.125 30.2656 181.453 28.2812L182.461 29.2188C181.461 30.9375 180.414 32.2266 179.32 33.0859C178.242 33.9453 177.352 34.375 176.648 34.375C175.961 34.375 175.43 34.1562 175.055 33.7188C174.68 33.2812 174.492 32.6562 174.492 31.8438Z" fill="#FED136"/>
<path d="M28.7109 33.6953L27.9753 34.3729L27.985 34.3831L28.7109 33.6953ZM27.8438 24.7188L26.8627 24.5252L26.8625 24.526L27.8438 24.7188ZM30.3047 15.8125L31.2554 16.1226L31.7618 14.57L30.1487 14.8247L30.3047 15.8125ZM27.7969 16.2578L27.9707 17.2427L27.982 17.2405L27.7969 16.2578ZM25.5469 16.6328L25.4055 15.6429L24.717 15.7412L24.5696 16.4209L25.5469 16.6328ZM18.375 30.8828L17.676 30.1677L17.6726 30.171L18.375 30.8828ZM14.1328 33.7188L13.7315 32.8028L13.7283 32.8042L14.1328 33.7188ZM4.14844 22.7734L4.94013 23.3844L5.49669 22.6631L4.83027 22.0419L4.14844 22.7734ZM1.40625 9.13281L0.494633 8.72169L0.491332 8.72917L1.40625 9.13281ZM4.24219 5.125L3.56999 4.3846L3.56513 4.38907L4.24219 5.125ZM8.36719 2.38281L7.93523 1.48092L7.93446 1.48129L8.36719 2.38281ZM31.5938 0.648438L32.5837 0.789859L32.626 0.493507L32.4986 0.22264L31.5938 0.648438ZM31.4297 0.953125L30.7226 0.246018L30.6905 0.278093L30.6615 0.312941L31.4297 0.953125ZM31.2656 1.21094L32.0334 1.85162L32.1351 1.72973L32.1941 1.58233L31.2656 1.21094ZM26.6719 11.2188L27.6392 11.4725L27.6412 11.4646L26.6719 11.2188ZM25.7812 14.9922L24.8046 14.7773L24.4863 16.224L25.9471 15.9783L25.7812 14.9922ZM30.9375 14.125L31.1034 15.1112L31.6214 15.024L31.8436 14.548L30.9375 14.125ZM39.2344 3.39062L39.7349 4.25638L39.7408 4.25291L39.2344 3.39062ZM44.2734 3.20312L43.6668 3.99808L43.6784 4.00693L43.6902 4.01545L44.2734 3.20312ZM44.1328 8.42969L43.2916 7.8889L43.2862 7.89752L44.1328 8.42969ZM41.4844 11.3125L42.0899 12.1083L42.0935 12.1056L41.4844 11.3125ZM34.875 14.8984L34.5588 13.9498L34.1359 14.0907L33.9581 14.4994L34.875 14.8984ZM32.5312 22.4688L31.5603 22.2294L31.5595 22.2326L32.5312 22.4688ZM35.7656 28.7266L36.453 28.0003L35.621 27.2128L34.9532 28.1436L35.7656 28.7266ZM37.0781 29.9688L37.9086 30.5259L38.3796 29.8237L37.7655 29.2425L37.0781 29.9688ZM34.1953 33.2031L33.5508 32.4385L33.5454 32.4431L34.1953 33.2031ZM5.29688 21.6719L4.52534 22.3081L5.19698 23.1226L5.97393 22.4078L5.29688 21.6719ZM21.2344 15.5781L21.3135 16.575L22.0529 16.5163L22.2113 15.7917L21.2344 15.5781ZM26.3672 1.98438L27.1354 2.62456L28.2631 1.27134L26.5232 0.996612L26.3672 1.98438ZM17.5547 2.03125L17.6977 3.02104L17.7084 3.01937L17.5547 2.03125ZM9.35156 4.77344L8.82746 3.92176L8.82255 3.92482L9.35156 4.77344ZM6.14062 7.375L6.85581 8.07405L6.86476 8.06466L6.14062 7.375ZM5.4375 23.6875L5.93461 22.8198L5.15178 22.3713L4.62537 23.104L5.4375 23.6875ZM4.875 31.8203L4.10157 32.4543L4.10781 32.4617L4.875 31.8203ZM11.625 32.5469L12.0189 33.4661L12.0299 33.4612L11.625 32.5469ZM14.5312 30.5312L15.2448 31.2319L15.2511 31.2254L14.5312 30.5312ZM16.8281 27.6953L17.6563 28.2559L17.6602 28.25L16.8281 27.6953ZM18.6562 24.25L17.7348 23.8614L17.7342 23.863L18.6562 24.25ZM21 17.2422L21.9701 17.4847L22.3088 16.1299L20.9172 16.2456L21 17.2422ZM6.53906 22.5859L5.83743 21.8734L4.86985 22.8262L6.06684 23.4674L6.53906 22.5859ZM12.3984 23.5938L13.3158 23.1957L13.0312 22.5399L12.3187 22.5969L12.3984 23.5938ZM12.9375 24.8359L13.0521 25.8293L14.3916 25.6748L13.8548 24.4378L12.9375 24.8359ZM40.4062 5.03125L39.7381 4.28716L39.7305 4.2941L40.4062 5.03125ZM38.2969 7.63281L37.4495 7.10165L37.444 7.11077L38.2969 7.63281ZM35.5781 12.8828L34.655 12.4982L33.7654 14.6332L35.9303 13.8188L35.5781 12.8828ZM39.8203 10.4922L40.445 11.2731L40.4456 11.2726L39.8203 10.4922ZM29.4465 33.0178C29.0043 32.5377 28.7222 32.0192 28.5783 31.4557L26.6405 31.9505C26.8716 32.8558 27.3238 33.6654 27.9754 34.3728L29.4465 33.0178ZM28.5783 31.4557C28.4181 30.8282 28.3281 30.0111 28.3281 28.9844H26.3281C26.3281 30.1139 26.4257 31.1093 26.6405 31.9505L28.5783 31.4557ZM28.3281 28.9844C28.3281 27.9828 28.487 26.6323 28.825 24.9115L26.8625 24.526C26.513 26.3052 26.3281 27.7984 26.3281 28.9844H28.3281ZM28.8248 24.9123C29.2669 22.6716 30.0736 19.7457 31.2554 16.1226L29.354 15.5024C28.1608 19.1605 27.3269 22.1721 26.8627 24.5252L28.8248 24.9123ZM30.1487 14.8247C29.5404 14.9208 28.6931 15.0714 27.6117 15.2751L27.982 17.2405C29.0569 17.038 29.8815 16.8917 30.4607 16.8003L30.1487 14.8247ZM27.6231 15.273C26.5604 15.4606 25.825 15.5829 25.4055 15.6429L25.6883 17.6228C26.1438 17.5577 26.9083 17.4301 27.9707 17.2426L27.6231 15.273ZM24.5696 16.4209C23.2707 22.4109 20.9529 26.9649 17.676 30.1677L19.074 31.598C22.7034 28.0507 25.1668 23.1048 26.5242 16.8447L24.5696 16.4209ZM17.6726 30.171C16.5784 31.2509 15.2684 32.1295 13.7315 32.8028L14.5341 34.6347C16.2784 33.8705 17.7966 32.8585 19.0774 31.5946L17.6726 30.171ZM13.7283 32.8042C12.2419 33.4617 10.6 33.7969 8.78906 33.7969V35.7969C10.8532 35.7969 12.7738 35.4133 14.5373 34.6333L13.7283 32.8042ZM8.78906 33.7969C7.0598 33.7969 5.65359 33.3008 4.50912 32.3426L3.22525 33.8761C4.76829 35.168 6.64333 35.7969 8.78906 35.7969V33.7969ZM4.50912 32.3426C3.41191 31.424 2.85156 30.2071 2.85156 28.5859H0.851562C0.851562 30.746 1.63496 32.5447 3.22525 33.8761L4.50912 32.3426ZM2.85156 28.5859C2.85156 26.9789 3.50001 25.2506 4.94013 23.3844L3.35674 22.1625C1.73437 24.265 0.851562 26.4118 0.851562 28.5859H2.85156ZM4.83027 22.0419C2.48492 19.8558 1.35156 17.3251 1.35156 14.4062H-0.648438C-0.648438 17.9249 0.749457 20.9723 3.4666 23.5049L4.83027 22.0419ZM1.35156 14.4062C1.35156 12.6089 1.6797 10.9904 2.32117 9.53645L0.491332 8.72917C-0.273451 10.4627 -0.648438 12.3598 -0.648438 14.4062H1.35156ZM2.31784 9.54392C2.98659 8.06104 3.85599 6.83912 4.91924 5.86093L3.56513 4.38907C2.28463 5.56713 1.26341 7.01709 0.494663 8.7217L2.31784 9.54392ZM4.91438 5.86538C6.02474 4.85728 7.31761 3.99584 8.79992 3.28434L7.93446 1.48129C6.29176 2.26978 4.83463 3.23647 3.57 4.38462L4.91438 5.86538ZM8.79915 3.28471C11.6199 1.93372 14.767 1.25 18.2578 1.25V-0.75C14.4986 -0.75 11.052 -0.0118459 7.93523 1.48092L8.79915 3.28471ZM18.2578 1.25H30.9844V-0.75H18.2578V1.25ZM30.9844 1.25C30.9622 1.25 30.8861 1.24262 30.8004 1.18658C30.7173 1.13227 30.6887 1.07367 30.6889 1.07423L32.4986 0.22264C32.3738 -0.0424176 32.1811 -0.300239 31.8949 -0.48736C31.6061 -0.676218 31.2878 -0.75 30.9844 -0.75V1.25ZM30.6038 0.507016C30.6134 0.440153 30.6346 0.380731 30.6605 0.332541C30.6856 0.285948 30.7107 0.257904 30.7226 0.246018L32.1368 1.66023C32.3521 1.44495 32.5317 1.15366 32.5837 0.789859L30.6038 0.507016ZM30.6615 0.312941C30.5436 0.454369 30.4206 0.630843 30.3371 0.839547L32.1941 1.58233C32.1881 1.59733 32.1828 1.60823 32.1793 1.61489C32.1775 1.61827 32.1761 1.62077 32.1752 1.62237C32.1747 1.62318 32.1743 1.62378 32.1741 1.62417C32.1739 1.62456 32.1737 1.62476 32.1737 1.62477C32.1737 1.62477 32.1739 1.62459 32.1741 1.62422C32.1743 1.62386 32.1747 1.62332 32.1752 1.6226C32.1762 1.62116 32.1777 1.61909 32.1797 1.61636C32.1837 1.61086 32.1897 1.60318 32.1979 1.59331L30.6615 0.312941ZM30.4978 0.570253C28.4001 3.08414 26.8179 6.57548 25.7026 10.9729L27.6412 11.4646C28.7134 7.23702 30.1936 4.05648 32.0334 1.85162L30.4978 0.570253ZM25.7046 10.965C25.4498 11.9364 25.1497 13.2087 24.8046 14.7773L26.7579 15.207C27.1003 13.6506 27.394 12.4073 27.6392 11.4725L25.7046 10.965ZM25.9471 15.9783L31.1034 15.1112L30.7716 13.1388L25.6154 14.006L25.9471 15.9783ZM31.8436 14.548C34.3442 9.19183 36.9999 5.8375 39.7349 4.25636L38.7339 2.52489C35.4688 4.4125 32.5933 8.21442 30.0314 13.702L31.8436 14.548ZM39.7408 4.25291C40.6141 3.74002 41.3778 3.52344 42.0469 3.52344V1.52344C40.9347 1.52344 39.8234 1.88498 38.728 2.52834L39.7408 4.25291ZM42.0469 3.52344C42.7618 3.52344 43.279 3.70216 43.6668 3.99808L44.8801 2.40817C44.0804 1.79784 43.1132 1.52344 42.0469 1.52344V3.52344ZM43.6902 4.01545C43.9595 4.20877 44.1875 4.5631 44.1875 5.33594H46.1875C46.1875 4.14003 45.8061 3.07248 44.8566 2.3908L43.6902 4.01545ZM44.1875 5.33594C44.1875 6.05771 43.9256 6.9027 43.2916 7.88893L44.974 8.97045C45.7462 7.76917 46.1875 6.55167 46.1875 5.33594H44.1875ZM43.2862 7.89752C42.665 8.88575 41.8643 9.75971 40.8752 10.5194L42.0935 12.1056C43.2607 11.209 44.2256 10.1611 44.9794 8.96186L43.2862 7.89752ZM40.8789 10.5167C38.7977 12.1001 36.6909 13.239 34.5588 13.9498L35.1912 15.8471C37.5591 15.0578 39.8585 13.8061 42.0899 12.1083L40.8789 10.5167ZM33.9581 14.4994C33.1895 16.2654 32.3924 18.8541 31.5603 22.2294L33.5022 22.7081C34.3264 19.3647 35.0917 16.9065 35.7919 15.2975L33.9581 14.4994ZM31.5595 22.2326C30.747 25.5764 30.3125 28.0711 30.3125 29.6406H32.3125C32.3125 28.3351 32.6905 26.0486 33.503 22.7049L31.5595 22.2326ZM30.3125 29.6406C30.3125 30.3997 30.3885 31.1012 30.6203 31.6481C30.7407 31.932 30.9239 32.2244 31.2085 32.4482C31.5079 32.6836 31.8616 32.7969 32.2266 32.7969V30.7969C32.2868 30.7969 32.3739 30.8203 32.4448 30.876C32.5009 30.9201 32.4937 30.943 32.4617 30.8675C32.3889 30.6957 32.3125 30.3191 32.3125 29.6406H30.3125ZM32.2266 32.7969C33.0375 32.7969 33.7871 32.3464 34.4346 31.7847C35.108 31.2004 35.8223 30.3628 36.5781 29.3096L34.9532 28.1436C34.2402 29.1372 33.6302 29.8347 33.124 30.2739C32.5918 30.7356 32.3062 30.7969 32.2266 30.7969V32.7969ZM35.0782 29.4529L36.3907 30.695L37.7655 29.2425L36.453 28.0003L35.0782 29.4529ZM36.2477 29.4116C35.4695 30.5715 34.5705 31.5791 33.5508 32.4385L34.8398 33.9678C36.0077 32.9834 37.0305 31.8347 37.9086 30.5259L36.2477 29.4116ZM33.5454 32.4431C32.5771 33.2711 31.7525 33.5859 31.0547 33.5859V35.5859C32.3881 35.5859 33.6573 34.9789 34.8452 33.9632L33.5454 32.4431ZM31.0547 33.5859C30.2637 33.5859 29.7697 33.3589 29.4369 33.0076L27.985 34.3831C28.7772 35.2192 29.8457 35.5859 31.0547 35.5859V33.5859ZM2.09375 15.4609C2.09375 18.0469 2.9054 20.3435 4.52534 22.3081L6.06841 21.0357C4.75085 19.4378 4.09375 17.5937 4.09375 15.4609H2.09375ZM5.97393 22.4078C7.81479 20.7142 10.0997 19.3724 12.8503 18.3954L12.1809 16.5108C9.21278 17.5651 6.68521 19.0358 4.61982 20.9359L5.97393 22.4078ZM12.8503 18.3954C15.6293 17.4084 18.4497 16.8023 21.3135 16.575L21.1553 14.5813C18.1128 14.8227 15.1207 15.4666 12.1809 16.5108L12.8503 18.3954ZM22.2113 15.7917C23.6785 9.07987 25.3517 4.76503 27.1354 2.62456L25.599 1.34419C23.4764 3.89122 21.7277 8.63888 20.2574 15.3646L22.2113 15.7917ZM26.5232 0.996612C25.2693 0.798637 23.8004 0.703125 22.125 0.703125V2.70312C23.7308 2.70312 25.0901 2.79511 26.2112 2.97214L26.5232 0.996612ZM22.125 0.703125C20.4405 0.703125 18.8651 0.815385 17.401 1.04313L17.7084 3.01937C19.0568 2.80961 20.5282 2.70312 22.125 2.70312V0.703125ZM17.4117 1.04152C15.952 1.25238 14.4874 1.58441 13.0184 2.03641L13.6066 3.94797C14.9813 3.52496 16.3449 3.21637 17.6976 3.02098L17.4117 1.04152ZM13.0184 2.03641C11.519 2.49777 10.121 3.12577 8.82747 3.92178L9.87566 5.6251C11.0196 4.9211 12.2623 4.3616 13.6066 3.94797L13.0184 2.03641ZM8.82255 3.92482C7.55102 4.71746 6.41452 5.63741 5.41649 6.68534L6.86476 8.06466C7.74173 7.14384 8.74585 6.32941 9.88057 5.62205L8.82255 3.92482ZM5.4255 6.676C3.1857 8.9675 2.09375 11.9268 2.09375 15.4609H4.09375C4.09375 12.3701 5.03305 9.93875 6.85575 8.074L5.4255 6.676ZM4.62537 23.104C3.39211 24.8206 2.70312 26.545 2.70312 28.2578H4.70312C4.70312 27.0957 5.17039 25.7732 6.24963 24.271L4.62537 23.104ZM2.70312 28.2578C2.70312 29.8734 3.15175 31.2954 4.10161 32.4542L5.64839 31.1864C5.03575 30.439 4.70312 29.4859 4.70312 28.2578H2.70312ZM4.10781 32.4617C5.10406 33.6533 6.43746 34.25 8.01562 34.25V32.25C7.00004 32.25 6.23969 31.8936 5.64219 31.1789L4.10781 32.4617ZM8.01562 34.25C9.44954 34.25 10.7884 33.9934 12.0189 33.466L11.2311 31.6277C10.2741 32.0379 9.20671 32.25 8.01562 32.25V34.25ZM12.0299 33.4612C13.2399 32.9254 14.3132 32.1807 15.2448 31.2318L13.8177 29.8307C13.0618 30.6006 12.1976 31.1996 11.2201 31.6325L12.0299 33.4612ZM15.2511 31.2254C16.1351 30.3087 16.9368 29.3186 17.6562 28.2559L16 27.1347C15.3444 28.1033 14.6149 29.0038 13.8114 29.8371L15.2511 31.2254ZM17.6602 28.25C18.3865 27.1606 19.025 25.9551 19.5783 24.637L17.7342 23.863C17.225 25.0761 16.6448 26.1676 15.9961 27.1406L17.6602 28.25ZM19.5776 24.6386C20.566 22.2952 21.3637 19.9105 21.9701 17.4847L20.0299 16.9997C19.4488 19.3239 18.684 21.611 17.7349 23.8614L19.5776 24.6386ZM20.9172 16.2456C14.2251 16.802 9.13556 18.6258 5.83743 21.8734L7.2407 23.2985C10.0676 20.5149 14.6187 18.7761 21.0828 18.2387L20.9172 16.2456ZM6.06684 23.4674C7.47452 24.2215 8.8412 24.6406 10.1484 24.6406V22.6406C9.26818 22.6406 8.22861 22.3566 7.01128 21.7045L6.06684 23.4674ZM10.1484 24.6406C11.2529 24.6406 12.0417 24.6255 12.4782 24.5906L12.3187 22.5969C11.9739 22.6245 11.2627 22.6406 10.1484 22.6406V24.6406ZM11.4811 23.9918L12.0202 25.234L13.8548 24.4378L13.3158 23.1957L11.4811 23.9918ZM12.8229 23.8425C12.0503 23.9317 11.2527 23.9766 10.4297 23.9766V25.9766C11.3254 25.9766 12.1997 25.9277 13.0521 25.8293L12.8229 23.8425ZM10.4297 23.9766C8.76556 23.9766 7.2745 23.5875 5.93461 22.8198L4.94039 24.5552C6.6005 25.5063 8.43756 25.9766 10.4297 25.9766V23.9766ZM42.5391 3C41.5289 3 40.5877 3.52434 39.7381 4.2872L41.0744 5.7753C41.7561 5.16316 42.2367 5 42.5391 5V3ZM39.7305 4.2941C38.902 5.05359 38.1437 5.99439 37.4496 7.10168L39.1442 8.16395C39.7625 7.17748 40.4105 6.38391 41.082 5.7684L39.7305 4.2941ZM37.444 7.11077C36.3119 8.96032 35.3809 10.7562 34.655 12.4982L36.5012 13.2674C37.1816 11.6344 38.0631 9.9303 39.1498 8.15486L37.444 7.11077ZM35.9303 13.8188C37.6016 13.19 39.1086 12.3422 40.445 11.2731L39.1956 9.71132C38.032 10.6422 36.7109 11.3882 35.226 11.9469L35.9303 13.8188ZM40.4456 11.2726C42.8365 9.35668 44.3594 7.37662 44.3594 5.33594H42.3594C42.3594 6.389 41.5229 7.84645 39.195 9.71182L40.4456 11.2726ZM44.3594 5.33594C44.3594 4.82079 44.2861 4.26617 44.0065 3.81072C43.6778 3.27547 43.1405 3 42.5391 3V5C42.5396 5 42.527 5.00005 42.5047 4.99486C42.4818 4.98952 42.4525 4.97952 42.4209 4.96235C42.3516 4.92473 42.3143 4.877 42.3021 4.85725C42.2941 4.84415 42.3109 4.86625 42.3284 4.95199C42.3457 5.03651 42.3594 5.16141 42.3594 5.33594H44.3594ZM39.5391 25.0469L38.655 24.5796L38.6525 24.5843L39.5391 25.0469ZM41.7656 22.2812L41.135 21.5051L41.1281 21.5109L41.7656 22.2812ZM53.6016 30.1562L52.78 29.586L52.7755 29.5926L53.6016 30.1562ZM49.9922 33.2734L50.4319 34.1716L50.4394 34.1679L49.9922 33.2734ZM40.5469 32.7109L39.8732 33.4501L39.8831 33.4589L40.5469 32.7109ZM48.375 32.2188L47.7844 31.4117L47.775 31.4188L48.375 32.2188ZM49.8281 30.3906L48.9147 29.9836L48.912 29.9898L49.8281 30.3906ZM49.9453 22.4688L49.1283 23.0455L49.1338 23.0531L49.9453 22.4688ZM44.4844 23.2891L43.6866 22.6861L43.6821 22.6921L44.4844 23.2891ZM39.6953 28.4219C39.6953 27.4172 39.9347 26.4503 40.4256 25.5094L38.6525 24.5843C38.0184 25.7997 37.6953 27.0828 37.6953 28.4219H39.6953ZM40.4232 25.5142C40.9431 24.5306 41.6034 23.7135 42.4032 23.0516L41.1281 21.5109C40.1153 22.349 39.2913 23.3757 38.655 24.5796L40.4232 25.5142ZM42.3962 23.0574C44.2619 21.5415 46.0853 20.8438 47.8828 20.8438V18.8438C45.5241 18.8438 43.2693 19.771 41.135 21.5051L42.3962 23.0574ZM47.8828 20.8438C49.7757 20.8438 51.2372 21.3449 52.3511 22.2753L53.6333 20.7403C52.0909 19.452 50.1462 18.8438 47.8828 18.8438V20.8438ZM52.3511 22.2753C53.461 23.2023 53.9844 24.3159 53.9844 25.6797H55.9844C55.9844 23.6997 55.1797 22.032 53.6333 20.7403L52.3511 22.2753ZM53.9844 25.6797C53.9844 27.1374 53.5827 28.4297 52.7801 29.586L54.4231 30.7265C55.4641 29.2266 55.9844 27.5344 55.9844 25.6797H53.9844ZM52.7755 29.5926C51.9695 30.7738 50.8994 31.7018 49.545 32.379L50.4394 34.1679C52.085 33.3451 53.4211 32.1949 54.4276 30.7199L52.7755 29.5926ZM49.5525 32.3753C48.1984 33.0382 46.7095 33.375 45.0703 33.375V35.375C46.9936 35.375 48.786 34.9774 50.4319 34.1716L49.5525 32.3753ZM45.0703 33.375C43.5343 33.375 42.2667 32.9003 41.2107 31.963L39.8831 33.4589C41.327 34.7404 43.0751 35.375 45.0703 35.375V33.375ZM41.2205 31.9718C40.2029 31.0444 39.6953 29.8872 39.6953 28.4219H37.6953C37.6953 30.4253 38.4221 32.1274 39.8733 33.45L41.2205 31.9718ZM46.3594 33.9219C47.3136 33.9219 48.1928 33.6054 48.975 33.0187L47.775 31.4188C47.3072 31.7696 46.8426 31.9219 46.3594 31.9219V33.9219ZM48.9655 33.0258C49.7532 32.4494 50.3477 31.6979 50.7443 30.7914L48.912 29.9898C48.6523 30.5833 48.278 31.0506 47.7845 31.4117L48.9655 33.0258ZM50.7415 30.7977C51.4376 29.2357 51.7891 27.613 51.7891 25.9375H49.7891C49.7891 27.3245 49.4999 28.6705 48.9147 29.9836L50.7415 30.7977ZM51.7891 25.9375C51.7891 24.311 51.4951 22.9098 50.7568 21.8844L49.1338 23.0531C49.5205 23.5902 49.7891 24.5015 49.7891 25.9375H51.7891ZM50.7623 21.8921C50.0001 20.8123 48.8889 20.2734 47.5547 20.2734V22.2734C48.283 22.2734 48.7655 22.5315 49.1283 23.0454L50.7623 21.8921ZM47.5547 20.2734C46.0542 20.2734 44.7717 21.2504 43.6866 22.6861L45.2821 23.892C46.2283 22.6402 46.9927 22.2734 47.5547 22.2734V20.2734ZM43.6821 22.6921C42.5255 24.2463 41.9844 26.1813 41.9844 28.4219H43.9844C43.9844 26.5062 44.4432 25.0194 45.2866 23.8861L43.6821 22.6921ZM41.9844 28.4219C41.9844 30.018 42.2786 31.3975 43.0281 32.3969C43.8182 33.4504 44.9904 33.9219 46.3594 33.9219V31.9219C45.4784 31.9219 44.963 31.6434 44.6281 31.1969C44.2527 30.6963 43.9844 29.8257 43.9844 28.4219H41.9844ZM71.6016 23.7812L72.601 23.8138L72.6016 23.7976V23.7812H71.6016ZM71.4609 28.0938L70.4615 28.0612L70.4609 28.0774V28.0938H71.4609ZM74.7188 30.9297L73.9647 30.2729L73.9639 30.2738L74.7188 30.9297ZM76.8516 27.4141L75.9335 27.0176L75.9297 27.0265L76.8516 27.4141ZM77.7422 23.6875H78.7422V21.6069L77.1175 22.9066L77.7422 23.6875ZM75.2812 20.5L74.5614 19.8059L74.5549 19.8126L74.5485 19.8195L75.2812 20.5ZM79.3359 26.1719L78.3816 25.8729L78.3784 25.8835L79.3359 26.1719ZM75.0234 33.1094L75.6342 33.9012L75.6358 33.8999L75.0234 33.1094ZM69.1406 32.4531L70.0797 32.1095L70.0792 32.1081L69.1406 32.4531ZM68.4844 29.6641L67.486 29.7217L67.4861 29.7228L68.4844 29.6641ZM68.3672 27.7656L69.3648 27.6968L69.1596 24.7208L67.5297 27.2192L68.3672 27.7656ZM62.8828 33.8594L63.3383 34.7496L63.341 34.7482L62.8828 33.8594ZM59.4141 27.5547L58.4671 27.2334L58.4654 27.2385L59.4141 27.5547ZM57.375 26.5234L56.8803 27.3925L57.7202 27.8706L58.2267 27.0475L57.375 26.5234ZM55.8516 25.6562L54.9913 25.1464L54.4724 26.0218L55.3569 26.5253L55.8516 25.6562ZM63.5156 20.4297L62.7942 21.1222L62.8084 21.1369L62.8231 21.1511L63.5156 20.4297ZM64.6406 30.2031L63.8551 29.5842L63.8493 29.5917L64.6406 30.2031ZM66.9844 26.7812L67.8419 27.2958L67.8458 27.2892L66.9844 26.7812ZM70.6021 23.7487L70.4615 28.0612L72.4604 28.1263L72.601 23.8138L70.6021 23.7487ZM70.4609 28.0938C70.4609 29.5348 70.5442 30.6956 70.7397 31.5229C70.8359 31.9303 70.9779 32.3408 71.212 32.671C71.4638 33.0264 71.8829 33.3594 72.4688 33.3594V31.3594C72.7186 31.3594 72.8438 31.5146 72.8437 31.5145C72.8258 31.4893 72.7578 31.3666 72.6861 31.063C72.5456 30.4685 72.4609 29.4965 72.4609 28.0938H70.4609ZM72.4688 33.3594C73.6016 33.3594 74.6082 32.5816 75.4736 31.5856L73.9639 30.2738C73.173 31.184 72.6797 31.3594 72.4688 31.3594V33.3594ZM75.4728 31.5865C76.3967 30.5257 77.1605 29.2593 77.7734 27.8017L75.9297 27.0265C75.3863 28.3188 74.7283 29.3961 73.9647 30.2729L75.4728 31.5865ZM77.7696 27.8105C78.3996 26.3516 78.7422 24.972 78.7422 23.6875H76.7422C76.7422 24.6217 76.491 25.7265 75.9335 27.0176L77.7696 27.8105ZM77.1175 22.9066C77.1911 22.8478 77.247 22.8285 77.2482 22.8281C77.2528 22.8265 77.234 22.8334 77.1818 22.8423C77.0752 22.8605 76.9006 22.875 76.6406 22.875V24.875C76.9588 24.875 77.2569 24.8583 77.5174 24.8139C77.747 24.7749 78.0854 24.6936 78.3669 24.4684L77.1175 22.9066ZM76.6406 22.875C76.3125 22.875 76.0988 22.7793 75.9263 22.6139L74.5425 24.0579C75.1199 24.6113 75.8437 24.875 76.6406 24.875V22.875ZM75.9263 22.6139C75.7595 22.4541 75.6719 22.267 75.6719 21.9766H73.6719C73.6719 22.7799 73.9593 23.4991 74.5425 24.0579L75.9263 22.6139ZM75.6719 21.9766C75.6719 21.7062 75.7624 21.4515 76.014 21.1805L74.5485 19.8195C73.9876 20.4235 73.6719 21.1532 73.6719 21.9766H75.6719ZM76.0011 21.1941C76.1741 21.0147 76.4982 20.8438 77.1562 20.8438V18.8438C76.1581 18.8438 75.2322 19.1103 74.5614 19.8059L76.0011 21.1941ZM77.1562 20.8438C77.7492 20.8438 78.1502 21.0238 78.4543 21.3371L79.8895 19.9441C79.1623 19.195 78.2195 18.8438 77.1562 18.8438V20.8438ZM78.4543 21.3371C78.7439 21.6355 78.9453 22.0938 78.9453 22.8438H80.9453C80.9453 21.7187 80.6311 20.7083 79.8895 19.9441L78.4543 21.3371ZM78.9453 22.8438C78.9453 23.6285 78.7706 24.6315 78.3817 25.8729L80.2902 26.4708C80.7138 25.1185 80.9453 23.9027 80.9453 22.8438H78.9453ZM78.3784 25.8835C78.0094 27.1086 77.4991 28.3079 76.8451 29.4822L78.5924 30.4553C79.3134 29.1608 79.8812 27.8289 80.2934 26.4603L78.3784 25.8835ZM76.8451 29.4822C76.2228 30.5995 75.413 31.5427 74.411 32.3188L75.6358 33.8999C76.8527 32.9573 77.8397 31.8068 78.5924 30.4553L76.8451 29.4822ZM74.4126 32.3176C73.4744 33.0414 72.5134 33.375 71.5078 33.375V35.375C73.0022 35.375 74.3849 34.8649 75.6342 33.9012L74.4126 32.3176ZM71.5078 33.375C71.1602 33.375 70.9139 33.2803 70.7143 33.1182C70.4999 32.9442 70.2727 32.6368 70.0797 32.1095L68.2015 32.7967C68.4773 33.5507 68.879 34.2043 69.4537 34.6709C70.0431 35.1494 70.746 35.375 71.5078 35.375V33.375ZM70.0792 32.1081C69.7095 31.1024 69.5219 30.2729 69.4826 29.6053L67.4861 29.7228C67.5406 30.6489 67.7905 31.6788 68.202 32.7982L70.0792 32.1081ZM69.4827 29.6065C69.4358 28.7926 69.3965 28.1555 69.3648 27.6968L67.3696 27.8344C67.4004 28.282 67.4392 28.9105 67.486 29.7217L69.4827 29.6065ZM67.5297 27.2192C66.4766 28.8335 65.5156 30.1163 64.6473 31.081C63.7714 32.0543 63.0298 32.6586 62.4246 32.9705L63.341 34.7482C64.2515 34.2789 65.1817 33.4769 66.1339 32.419C67.0938 31.3525 68.1172 29.979 69.2047 28.312L67.5297 27.2192ZM62.4273 32.9691C61.8824 33.2479 61.3578 33.375 60.8438 33.375V35.375C61.7047 35.375 62.5394 35.1583 63.3383 34.7496L62.4273 32.9691ZM60.8438 33.375C60.2778 33.375 60.0219 33.2165 59.8822 33.0526C59.7164 32.858 59.5469 32.4596 59.5469 31.6797H57.5469C57.5469 32.6966 57.7601 33.6459 58.36 34.3498C58.9859 35.0843 59.8784 35.375 60.8438 35.375V33.375ZM59.5469 31.6797C59.5469 30.8252 59.796 29.5712 60.3627 27.8709L58.4654 27.2385C57.8759 29.007 57.5469 30.5029 57.5469 31.6797H59.5469ZM60.361 27.876C60.6614 26.9907 60.8919 26.2503 61.0485 25.6611C61.197 25.1023 61.3047 24.5891 61.3047 24.2031H59.3047C59.3047 24.3015 59.264 24.5891 59.1156 25.1475C58.9753 25.6755 58.7605 26.3687 58.4671 27.2334L60.361 27.876ZM61.3047 24.2031C61.3047 23.8969 61.266 23.504 61.064 23.1561C60.8138 22.7251 60.3779 22.4766 59.8828 22.4766V24.4766C59.8061 24.4766 59.6906 24.4587 59.5695 24.3892C59.4482 24.3196 59.3739 24.2283 59.3344 24.1603C59.2986 24.0987 59.2938 24.0611 59.2965 24.0753C59.299 24.0877 59.3047 24.1275 59.3047 24.2031H61.3047ZM59.8828 22.4766C59.4171 22.4766 59.0553 22.7317 58.8605 22.889C58.6283 23.0764 58.3962 23.3248 58.1674 23.6028C57.7059 24.1634 57.1564 24.9706 56.5233 25.9993L58.2267 27.0475C58.8436 26.045 59.337 25.3288 59.7116 24.8738C59.9007 24.644 60.0347 24.5114 60.117 24.445C60.2367 24.3484 60.1375 24.4766 59.8828 24.4766V22.4766ZM57.8697 25.6544L56.3463 24.7872L55.3569 26.5253L56.8803 27.3925L57.8697 25.6544ZM56.7118 26.1661C57.8354 24.2705 58.879 22.9094 59.8327 22.0333C60.7914 21.1528 61.568 20.8438 62.1797 20.8438V18.8438C60.8695 18.8438 59.6305 19.5035 58.4798 20.5604C57.3242 21.6219 56.1646 23.167 54.9913 25.1464L56.7118 26.1661ZM62.1797 20.8438C62.4081 20.8438 62.5972 20.917 62.7942 21.1222L64.237 19.7372C63.684 19.1611 62.9825 18.8438 62.1797 18.8438V20.8438ZM62.8231 21.1511C62.9251 21.249 63.1016 21.5403 63.1016 22.3047H65.1016C65.1016 21.3191 64.8874 20.3603 64.2082 19.7083L62.8231 21.1511ZM63.1016 22.3047C63.1016 23.0124 62.8275 24.4828 62.1983 26.8267L64.1299 27.3452C64.7506 25.0329 65.1016 23.3157 65.1016 22.3047H63.1016ZM62.1983 26.8267C61.8854 27.992 61.6496 28.8882 61.4915 29.5124C61.4127 29.8237 61.3518 30.0731 61.31 30.2569C61.2893 30.348 61.2716 30.4304 61.2585 30.4997C61.2517 30.5358 61.2266 30.6624 61.2266 30.7891H63.2266C63.2266 30.8806 63.2112 30.9378 63.2239 30.8705C63.2303 30.8362 63.2419 30.7809 63.2603 30.7001C63.2967 30.5401 63.3529 30.3091 63.4304 30.0032C63.5848 29.3931 63.8177 28.508 64.1299 27.3452L62.1983 26.8267ZM61.2266 30.7891C61.2266 31.1828 61.2832 31.6491 61.5344 32.0453C61.8345 32.5185 62.3196 32.75 62.8359 32.75V30.75C62.8673 30.75 62.9435 30.7569 63.0346 30.8048C63.1287 30.8542 63.1903 30.922 63.2234 30.9742C63.2522 31.0197 63.2507 31.0388 63.243 31.0027C63.2356 30.9675 63.2266 30.8995 63.2266 30.7891H61.2266ZM62.8359 32.75C63.419 32.75 63.9088 32.4087 64.2426 32.1225C64.6174 31.8012 65.0148 31.3544 65.4319 30.8146L63.8493 29.5917C63.4696 30.0831 63.1677 30.4097 62.941 30.604C62.8286 30.7004 62.7561 30.7455 62.7218 30.7631C62.6845 30.7821 62.7293 30.75 62.8359 30.75V32.75ZM65.4261 30.822C66.2675 29.7541 67.0724 28.5781 67.8419 27.2957L66.1269 26.2668C65.3963 27.4844 64.6388 28.5896 63.8551 29.5843L65.4261 30.822ZM67.8458 27.2892C68.8146 25.646 69.6037 24.4501 70.2173 23.6758C70.5261 23.2862 70.7656 23.0352 70.9386 22.8908C71.1502 22.7142 71.1241 22.8125 70.9219 22.8125V20.8125C70.3838 20.8125 69.9416 21.1179 69.6571 21.3553C69.334 21.6249 68.9973 21.9951 68.6498 22.4336C67.951 23.3155 67.1072 24.604 66.123 26.2733L67.8458 27.2892ZM70.9219 22.8125C70.764 22.8125 70.6173 22.7444 70.5246 22.6549C70.4556 22.5883 70.4589 22.5513 70.4864 22.631C70.5442 22.7984 70.6016 23.1555 70.6016 23.7812H72.6016C72.6016 23.0945 72.5457 22.4673 72.3769 21.9784C72.2118 21.5003 71.7921 20.8125 70.9219 20.8125V22.8125ZM131.391 27.3672L132.035 26.6027L131.091 25.8063L130.509 26.896L131.391 27.3672ZM132.586 28.375L133.514 28.7464L133.783 28.0759L133.231 27.6105L132.586 28.375ZM123.609 33.3906L122.772 33.9374L122.776 33.9433L122.78 33.9492L123.609 33.3906ZM123.938 24.8359L122.975 24.5635L122.974 24.5689L123.938 24.8359ZM126.328 17.3594L125.389 17.0163L125.387 17.0211L126.328 17.3594ZM118.828 16.4219L119.735 16.8427L119.736 16.8419L118.828 16.4219ZM115.031 25.1641L114.1 24.8001L114.098 24.8039L115.031 25.1641ZM111.609 34V35H112.291L112.54 34.3661L111.609 34ZM106.383 34L105.449 33.6421L104.929 35H106.383V34ZM108.539 28.375L107.608 28.009L107.605 28.0171L108.539 28.375ZM114.188 10.2109L113.211 9.99552L113.21 10.0007L114.188 10.2109ZM109.852 4.53906L110.621 5.17774L110.624 5.17397L109.852 4.53906ZM99.4688 25.75L98.5311 25.4023L98.5298 25.4059L99.4688 25.75ZM91.7578 34L90.8163 33.6631L90.3379 35H91.7578V34ZM94.3828 26.6641L93.4504 26.3027L93.4457 26.3148L93.4413 26.3272L94.3828 26.6641ZM98.6719 12.3906L97.6837 12.2371L97.6827 12.2436L98.6719 12.3906ZM97.7578 3.27344L96.9591 3.8752L96.9631 3.88048L97.7578 3.27344ZM90.3281 2.52344L90.8297 3.38859L90.8335 3.38632L90.3281 2.52344ZM85.875 8.17188L86.7994 8.55329L86.8026 8.54534L85.875 8.17188ZM87.6094 26.7109L88.2064 27.5132L88.9336 26.972L88.4662 26.1953L87.6094 26.7109ZM86.6016 27.4609L85.754 27.9916L86.3291 28.9102L87.1986 28.2632L86.6016 27.4609ZM84.0234 21.4141L83.0549 21.6629L83.057 21.6709L84.0234 21.4141ZM83.5312 11.1016L84.5127 11.2931L84.5132 11.2908L83.5312 11.1016ZM86.9062 3.69531L86.138 3.05513L86.1371 3.05629L86.9062 3.69531ZM90.1875 1.1875L90.622 2.08821L90.6263 2.08607L90.1875 1.1875ZM98.1094 1.04688L97.6191 1.91847L97.6249 1.92167L98.1094 1.04688ZM100.5 3.32031L99.645 3.83893L99.6457 3.84003L100.5 3.32031ZM99.7031 21.8125L98.7527 21.5015L100.639 22.1657L99.7031 21.8125ZM100.969 18.6016L100.061 18.1825L100.056 18.1922L100.052 18.202L100.969 18.6016ZM101.953 16.3516L101.037 15.9499L101.034 15.9567L101.031 15.9635L101.953 16.3516ZM102.867 14.2656L103.783 14.6665L103.788 14.6562L102.867 14.2656ZM103.875 12.0391L104.781 12.4628L104.783 12.4572L103.875 12.0391ZM105.047 9.625L104.166 9.15216L104.161 9.16017L105.047 9.625ZM106.336 7.30469L105.469 6.80538L105.467 6.81016L106.336 7.30469ZM109.289 3.15625L108.531 2.50401L108.53 2.50546L109.289 3.15625ZM110.953 1.5625L111.546 2.3682L111.555 2.36125L110.953 1.5625ZM115.852 18.2266L114.894 17.9384L114.892 17.9439L115.852 18.2266ZM114.984 21.2266L114.014 20.984L115.863 21.7039L114.984 21.2266ZM126.164 2.24219L125.638 1.39167L125.633 1.39482L126.164 2.24219ZM132.445 2.26562L131.7 2.93292L131.708 2.94135L132.445 2.26562ZM132.82 9.83594L133.791 10.0745L133.792 10.0725L132.82 9.83594ZM129.281 20.4297L130.218 20.7789L130.22 20.7734L129.281 20.4297ZM126.75 30.2969L125.751 30.2503L125.75 30.2736V30.2969H126.75ZM130.746 28.1317L131.941 29.1395L133.231 27.6105L132.035 26.6027L130.746 28.1317ZM131.657 28.0036C130.982 29.6921 130.101 31.0446 129.029 32.0882L130.424 33.5212C131.727 32.2523 132.752 30.6516 133.514 28.7464L131.657 28.0036ZM129.029 32.0882C127.953 33.1355 127.003 33.5391 126.164 33.5391V35.5391C127.701 35.5391 129.125 34.7864 130.424 33.5212L129.029 32.0882ZM126.164 33.5391C125.202 33.5391 124.716 33.2436 124.439 32.832L122.78 33.9492C123.534 35.0689 124.751 35.5391 126.164 35.5391V33.5391ZM124.447 32.8438C124.079 32.2809 123.859 31.5163 123.859 30.4844H121.859C121.859 31.7962 122.14 32.9691 122.772 33.9374L124.447 32.8438ZM123.859 30.4844C123.859 29.4605 124.184 27.6926 124.901 25.103L122.974 24.5689C122.254 27.1667 121.859 29.1645 121.859 30.4844H123.859ZM124.9 25.1084C125.628 22.5355 126.418 20.0653 127.269 17.6977L125.387 17.0211C124.519 19.4347 123.716 21.9489 122.975 24.5635L124.9 25.1084ZM127.267 17.7024C128.436 14.5037 129.318 11.8612 129.909 9.78132C130.492 7.73265 130.82 6.13714 130.82 5.07812H128.82C128.82 5.83161 128.567 7.18922 127.985 9.2343C127.413 11.2482 126.549 13.84 125.389 17.0163L127.267 17.7024ZM130.82 5.07812C130.82 4.47982 130.73 3.85916 130.41 3.36027C130.041 2.78553 129.456 2.50781 128.812 2.50781V4.50781C128.849 4.50781 128.833 4.51434 128.792 4.4934C128.774 4.48363 128.757 4.47146 128.744 4.45913C128.731 4.44715 128.726 4.4392 128.727 4.44051C128.73 4.44549 128.756 4.48908 128.779 4.60031C128.803 4.71076 128.82 4.86679 128.82 5.07812H130.82ZM128.812 2.50781C127.869 2.50781 126.959 2.88784 126.103 3.50242C125.246 4.1169 124.387 5.0045 123.521 6.12468C121.79 8.36439 119.925 11.6714 117.921 16.0019L119.736 16.8419C121.716 12.563 123.507 9.41296 125.104 7.34798C125.902 6.31581 126.625 5.58916 127.268 5.12746C127.912 4.66587 128.42 4.50781 128.812 4.50781V2.50781ZM117.921 16.001C116.307 19.4801 115.032 22.4145 114.1 24.8001L115.963 25.528C116.874 23.1949 118.131 20.3012 119.735 16.8427L117.921 16.001ZM114.098 24.8039C112.191 29.743 111.052 32.6845 110.679 33.6339L112.54 34.3661C112.916 33.4092 114.059 30.4601 115.964 25.5242L114.098 24.8039ZM111.609 33H106.383V35H111.609V33ZM107.317 34.3579L109.473 28.7329L107.605 28.0171L105.449 33.6421L107.317 34.3579ZM109.47 28.741C112.048 22.1856 113.948 16.0783 115.165 10.4212L113.21 10.0007C112.02 15.5311 110.155 21.5332 107.608 28.009L109.47 28.741ZM115.164 10.4263C115.639 8.27231 115.891 6.48818 115.891 5.10156H113.891C113.891 6.27745 113.673 7.89956 113.211 9.99553L115.164 10.4263ZM115.891 5.10156C115.891 4.06961 115.76 3.14138 115.388 2.43738C115.195 2.07057 114.924 1.74246 114.554 1.50939C114.181 1.27399 113.766 1.17188 113.344 1.17188V3.17188C113.437 3.17188 113.473 3.19183 113.487 3.20057C113.504 3.21164 113.555 3.24974 113.62 3.37121C113.764 3.64378 113.891 4.18039 113.891 5.10156H115.891ZM113.344 1.17188C111.824 1.17188 110.398 2.29857 109.079 3.90416L110.624 5.17397C111.898 3.62331 112.801 3.17188 113.344 3.17188V1.17188ZM109.082 3.90039C107.725 5.53539 106.444 7.5644 105.232 9.9723L107.018 10.8715C108.181 8.5606 109.384 6.66773 110.621 5.17773L109.082 3.90039ZM105.232 9.9723C104.034 12.3513 102.839 14.9239 101.644 17.6895L103.481 18.4824C104.661 15.748 105.841 13.2112 107.018 10.8715L105.232 9.9723ZM101.644 17.6895C100.451 20.4527 99.4132 23.0238 98.5312 25.4023L100.406 26.0977C101.274 23.7575 102.299 21.2192 103.481 18.4824L101.644 17.6895ZM98.5298 25.4059C97.5223 28.1552 96.76 30.2139 96.2423 31.584C95.9831 32.2701 95.7871 32.7783 95.6532 33.1125C95.5856 33.2815 95.5377 33.396 95.5075 33.4638C95.491 33.5008 95.4875 33.5062 95.4937 33.4947C95.4944 33.4933 95.5139 33.4562 95.5483 33.4083C95.5632 33.3875 95.6067 33.328 95.6766 33.2635C95.6983 33.2435 95.9445 33 96.3516 33V35C96.7606 35 97.0093 34.7552 97.0338 34.7325C97.1066 34.6653 97.1535 34.6018 97.1723 34.5756C97.2144 34.517 97.2435 34.4637 97.2558 34.4408C97.285 34.3863 97.3123 34.3273 97.3341 34.2784C97.3805 34.1744 97.4398 34.031 97.5098 33.8562C97.6513 33.503 97.8529 32.9799 98.1132 32.291C98.6345 30.9111 99.3996 28.8448 100.408 26.0941L98.5298 25.4059ZM96.3516 33H91.7578V35H96.3516V33ZM92.6994 34.3369L95.3244 27.001L93.4413 26.3272L90.8163 33.6631L92.6994 34.3369ZM95.3152 27.0255C97.6673 20.9572 99.1289 16.1173 99.661 12.5377L97.6827 12.2436C97.1836 15.6015 95.7859 20.2772 93.4504 26.3027L95.3152 27.0255ZM99.66 12.5441C99.9181 10.8826 100.047 9.19066 100.047 7.46875H98.0469C98.0469 9.09059 97.9256 10.6799 97.6837 12.2371L99.66 12.5441ZM100.047 7.46875C100.047 5.61861 99.568 3.99582 98.5525 2.6664L96.9631 3.88048C97.6664 4.80105 98.0469 5.97514 98.0469 7.46875H100.047ZM98.5565 2.67169C97.4973 1.2659 96.0143 0.5625 94.2188 0.5625V2.5625C95.4232 2.5625 96.2995 2.99972 96.9591 3.87519L98.5565 2.67169ZM94.2188 0.5625C92.5739 0.5625 91.0958 0.914903 89.8227 1.66055L90.8335 3.38632C91.748 2.85072 92.8636 2.5625 94.2188 2.5625V0.5625ZM89.8266 1.6583C88.6327 2.35042 87.6355 3.2402 86.8469 4.32667L88.4656 5.50146C89.0832 4.65043 89.8673 3.94645 90.8297 3.38858L89.8266 1.6583ZM86.8469 4.32667C86.092 5.36688 85.4598 6.52568 84.9474 7.79841L86.8026 8.54534C87.259 7.41182 87.8143 6.39875 88.4656 5.50146L86.8469 4.32667ZM84.9506 7.79048C83.9856 10.1293 83.4922 12.4383 83.4922 14.7109H85.4922C85.4922 12.7336 85.9206 10.6832 86.7994 8.55327L84.9506 7.79048ZM83.4922 14.7109C83.4922 19.4157 84.5692 23.5985 86.7526 27.2266L88.4662 26.1953C86.4933 22.9171 85.4922 19.1 85.4922 14.7109H83.4922ZM87.0124 25.9087L86.0046 26.6587L87.1986 28.2632L88.2064 27.5132L87.0124 25.9087ZM87.4491 26.9303C86.3818 25.2255 85.5603 23.3036 84.9899 21.1572L83.057 21.6709C83.6741 23.9933 84.5713 26.1026 85.754 27.9916L87.4491 26.9303ZM84.992 21.1652C84.4273 18.9675 84.1562 17.0937 84.1562 15.5312H82.1562C82.1562 17.3125 82.4633 19.3606 83.0549 21.6629L84.992 21.1652ZM84.1562 15.5312C84.1562 13.9067 84.2779 12.4966 84.5127 11.2931L82.5498 10.9101C82.2846 12.2691 82.1562 13.812 82.1562 15.5312H84.1562ZM84.5132 11.2908C84.7478 10.0735 85.1381 8.84037 85.6886 7.5906L83.8583 6.7844C83.2525 8.15963 82.8147 9.53586 82.5493 10.9123L84.5132 11.2908ZM85.6886 7.5906C86.2325 6.35587 86.8959 5.27261 87.6754 4.33433L86.1371 3.05629C85.2291 4.14926 84.4707 5.39413 83.8583 6.7844L85.6886 7.5906ZM87.6745 4.3355C88.4338 3.42431 89.4096 2.67297 90.622 2.08819L89.753 0.286805C88.3091 0.983284 87.0975 1.90381 86.138 3.05513L87.6745 4.3355ZM90.6263 2.08607C91.836 1.4953 93.0924 1.20312 94.4062 1.20312V-0.796875C92.7826 -0.796875 91.2265 -0.432804 89.7487 0.288932L90.6263 2.08607ZM94.4062 1.20312C95.7503 1.20312 96.8051 1.46055 97.6191 1.91845L98.5996 0.175299C97.4137 -0.491797 95.9997 -0.796875 94.4062 -0.796875V1.20312ZM97.6249 1.92167C98.4947 2.40339 99.1611 3.04109 99.645 3.83892L101.355 2.8017C100.683 1.69329 99.7553 0.815356 98.5939 0.172084L97.6249 1.92167ZM99.6457 3.84003C100.672 5.52751 101.211 7.61216 101.211 10.1406H103.211C103.211 7.32534 102.609 4.86311 101.354 2.80059L99.6457 3.84003ZM101.211 10.1406C101.211 12.6468 100.418 16.4124 98.7527 21.5015L100.654 22.1235C102.332 16.9939 103.211 12.9782 103.211 10.1406H101.211ZM100.639 22.1657C101.217 20.6341 101.631 19.585 101.885 19.0011L100.052 18.202C99.7753 18.8368 99.3456 19.9284 98.7676 21.4593L100.639 22.1657ZM101.877 19.0206C102.164 18.3976 102.497 17.6366 102.875 16.7396L101.031 15.9635C100.659 16.8478 100.336 17.5868 100.061 18.1825L101.877 19.0206ZM102.869 16.7532C103.26 15.8625 103.564 15.1669 103.783 14.6664L101.951 13.8648C101.732 14.3644 101.428 15.0594 101.037 15.9499L102.869 16.7532ZM103.788 14.6562C103.999 14.1576 104.329 13.4285 104.781 12.4627L102.969 11.6154C102.515 12.5872 102.173 13.3424 101.947 13.8751L103.788 14.6562ZM104.783 12.4572C105.233 11.4812 105.615 10.6937 105.932 10.0898L104.161 9.16017C103.822 9.80633 103.424 10.6281 102.967 11.6209L104.783 12.4572ZM105.928 10.0978C106.267 9.46684 106.692 8.70107 107.205 7.79921L105.467 6.81016C104.949 7.72081 104.515 8.50191 104.166 9.15218L105.928 10.0978ZM107.202 7.80399C107.722 6.90169 108.186 6.17812 108.594 5.62445L106.984 4.43805C106.517 5.07188 106.012 5.86394 105.47 6.80539L107.202 7.80399ZM108.594 5.62445C109.015 5.05346 109.499 4.44773 110.048 3.80704L108.53 2.50546C107.954 3.17727 107.438 3.82154 106.984 4.43805L108.594 5.62445ZM110.047 3.80849C110.592 3.17563 111.092 2.70177 111.546 2.36815L110.361 0.756849C109.752 1.20448 109.143 1.79312 108.531 2.50401L110.047 3.80849ZM111.555 2.36125C112.643 1.5417 113.601 1.20312 114.445 1.20312V-0.796875C113.04 -0.796875 111.67 -0.229198 110.351 0.763747L111.555 2.36125ZM114.445 1.20312C115.527 1.20312 116.195 1.55032 116.632 2.13681C117.11 2.77839 117.43 3.86087 117.43 5.54688H119.43C119.43 3.67038 119.085 2.08098 118.235 0.941315C117.344 -0.253443 116.02 -0.796875 114.445 -0.796875V1.20312ZM117.43 5.54688C117.43 7.67639 117.006 10.3722 116.128 13.6556L118.06 14.1726C118.962 10.7997 119.43 7.91736 119.43 5.54688H117.43ZM116.128 13.6556C115.835 14.7509 115.424 16.1775 114.894 17.9384L116.809 18.5147C117.342 16.7443 117.759 15.2959 118.06 14.1726L116.128 13.6556ZM114.892 17.9439C114.381 19.6797 114.083 20.708 114.014 20.984L115.955 21.4691C116.011 21.2452 116.291 20.2734 116.811 18.5092L114.892 17.9439ZM115.863 21.7039C116.577 20.3897 117.492 18.3728 118.604 15.6784L116.755 14.9153C115.649 17.596 114.767 19.5322 114.106 20.7492L115.863 21.7039ZM118.604 15.6784C119.707 13.0058 120.668 10.9258 121.487 9.42416L119.731 8.46646C118.863 10.0585 117.871 12.2129 116.755 14.9153L118.604 15.6784ZM121.487 9.42416C122.312 7.91155 123.128 6.63776 123.932 5.59518L122.349 4.37357C121.466 5.51849 120.594 6.88532 119.731 8.46646L121.487 9.42416ZM123.932 5.59518C124.704 4.59519 125.623 3.76119 126.695 3.08955L125.633 1.39482C124.361 2.19194 123.265 3.18606 122.349 4.37357L123.932 5.59518ZM126.69 3.09269C127.752 2.43565 128.745 2.14062 129.68 2.14062V0.140625C128.302 0.140625 126.951 0.579972 125.638 1.39168L126.69 3.09269ZM129.68 2.14062C130.618 2.14062 131.25 2.43 131.7 2.93287L133.19 1.59838C132.297 0.601253 131.085 0.140625 129.68 0.140625V2.14062ZM131.708 2.94135C132.19 3.46703 132.477 4.20586 132.477 5.26562H134.477C134.477 3.82539 134.076 2.56422 133.182 1.5899L131.708 2.94135ZM132.477 5.26562C132.477 6.40778 132.275 7.84674 131.849 9.59937L133.792 10.0725C134.24 8.23138 134.477 6.62347 134.477 5.26562H132.477ZM131.849 9.59741C131.42 11.3431 130.892 13.0823 130.263 14.8152L132.143 15.4973C132.796 13.6989 133.345 11.8912 133.791 10.0745L131.849 9.59741ZM130.263 14.8152C129.623 16.5799 128.982 18.3368 128.342 20.0859L130.22 20.7734C130.861 19.0225 131.502 17.2638 132.143 15.4973L130.263 14.8152ZM128.344 20.0805C126.757 24.3395 125.868 27.747 125.751 30.2503L127.749 30.3435C127.851 28.1593 128.649 24.9886 130.218 20.7789L128.344 20.0805ZM125.75 30.2969C125.75 30.8503 125.816 31.4174 126.055 31.8802C126.181 32.1261 126.37 32.3667 126.642 32.5429C126.92 32.7222 127.226 32.7969 127.523 32.7969V30.7969C127.563 30.7969 127.644 30.809 127.728 30.8633C127.807 30.9145 127.834 30.9676 127.832 30.9636C127.828 30.955 127.804 30.9036 127.784 30.7837C127.764 30.6664 127.75 30.5066 127.75 30.2969H125.75ZM127.523 32.7969C128.076 32.7969 128.569 32.5632 128.978 32.2666C129.391 31.9671 129.791 31.5517 130.182 31.0589L128.615 29.8161C128.287 30.2296 128.016 30.4938 127.804 30.6474C127.588 30.804 127.502 30.7969 127.523 30.7969V32.7969ZM130.182 31.0589C130.942 30.1005 131.638 29.0258 132.273 27.8384L130.509 26.896C129.924 27.9898 129.292 28.962 128.615 29.8161L130.182 31.0589ZM146.836 20.3594V19.3594H146.06L145.867 20.111L146.836 20.3594ZM150.492 20.3594L151.459 20.6148L151.791 19.3594H150.492V20.3594ZM148.641 27.3672L149.598 27.6559L149.603 27.6394L149.607 27.6226L148.641 27.3672ZM151.031 29.0312L150.219 28.4476L150.213 28.4561L150.207 28.4647L151.031 29.0312ZM151.57 28.2812L152.251 27.5491L151.421 26.7762L150.758 27.6976L151.57 28.2812ZM152.578 29.2188L153.467 29.677L153.814 29.0031L153.259 28.4866L152.578 29.2188ZM150.609 31.9609L149.889 31.2676L149.888 31.268L150.609 31.9609ZM144.609 30.4844L145.593 30.6633L143.65 30.2022L144.609 30.4844ZM143.273 32.5938L142.593 31.8609L142.585 31.8688L143.273 32.5938ZM135.258 32.7812L134.503 33.4374L134.508 33.4433L134.513 33.449L135.258 32.7812ZM144.727 20.7578L144.08 21.5206L144.09 21.5288L144.727 20.7578ZM146.133 23.1016L145.157 23.3218L147.101 23.3499L146.133 23.1016ZM140.367 23.0078L141.06 23.7292L141.06 23.7289L140.367 23.0078ZM138.562 25.75L139.492 26.119L139.494 26.1144L138.562 25.75ZM138.586 31.3281L137.767 31.9016L137.771 31.9084L137.776 31.9151L138.586 31.3281ZM143.18 31L143.927 31.6644L143.932 31.6585L143.18 31ZM146.836 21.3594H150.492V19.3594H146.836V21.3594ZM149.525 20.1039L147.674 27.1117L149.607 27.6226L151.459 20.6148L149.525 20.1039ZM147.683 27.0784C147.365 28.1329 147.195 29.1303 147.195 30.0625H149.195C149.195 29.3697 149.322 28.5703 149.598 27.6559L147.683 27.0784ZM147.195 30.0625C147.195 30.4924 147.23 30.929 147.358 31.2918C147.423 31.4779 147.537 31.7128 147.746 31.9101C147.978 32.1291 148.283 32.2578 148.617 32.2578V30.2578C148.703 30.2578 148.798 30.2736 148.894 30.3122C148.988 30.3506 149.064 30.4035 149.119 30.4561C149.223 30.5538 149.248 30.6393 149.244 30.6262C149.241 30.619 149.227 30.5727 149.215 30.4686C149.203 30.3681 149.195 30.2344 149.195 30.0625H147.195ZM148.617 32.2578C149.03 32.2578 149.387 32.0875 149.65 31.9213C149.927 31.7461 150.202 31.5091 150.473 31.2384L149.059 29.8241C148.845 30.0378 148.687 30.1641 148.581 30.2311C148.461 30.307 148.486 30.2578 148.617 30.2578V32.2578ZM150.473 31.2384C151.009 30.7021 151.472 30.1556 151.855 29.5978L150.207 28.4647C149.903 28.9069 149.522 29.3604 149.059 29.8241L150.473 31.2384ZM151.843 29.6149L152.382 28.8649L150.758 27.6976L150.219 28.4476L151.843 29.6149ZM150.889 29.0134L151.897 29.9509L153.259 28.4866L152.251 27.5491L150.889 29.0134ZM151.689 28.7605C151.219 29.6725 150.62 30.5077 149.889 31.2676L151.33 32.6543C152.193 31.7579 152.906 30.765 153.467 29.677L151.689 28.7605ZM149.888 31.268C148.371 32.8468 147.281 33.375 146.578 33.375V35.375C148.157 35.375 149.754 34.2938 151.33 32.6539L149.888 31.268ZM146.578 33.375C146.211 33.375 146.04 33.2593 145.906 33.0527C145.724 32.7711 145.562 32.2211 145.562 31.2578H143.562C143.562 32.3726 143.737 33.3813 144.227 34.1387C144.765 34.9712 145.602 35.375 146.578 35.375V33.375ZM145.562 31.2578C145.562 30.9283 145.579 30.7437 145.593 30.6633L143.626 30.3055C143.578 30.5688 143.562 30.8998 143.562 31.2578H145.562ZM143.65 30.2022C143.47 30.8131 143.128 31.3641 142.593 31.861L143.954 33.3265C144.731 32.6047 145.28 31.7494 145.569 30.7665L143.65 30.2022ZM142.585 31.8688C141.502 32.8975 140.328 33.375 139.031 33.375V35.375C140.891 35.375 142.545 34.665 143.962 33.3187L142.585 31.8688ZM139.031 33.375C137.723 33.375 136.746 32.9431 136.002 32.1135L134.513 33.449C135.675 34.7444 137.215 35.375 139.031 35.375V33.375ZM136.012 32.1251C135.253 31.2521 134.852 30.1508 134.852 28.75H132.852C132.852 30.5679 133.387 32.1542 134.503 33.4374L136.012 32.1251ZM134.852 28.75C134.852 26.4895 135.577 24.6306 137.016 23.1089L135.562 21.7349C133.751 23.6506 132.852 26.0105 132.852 28.75H134.852ZM137.016 23.1089C138.469 21.5718 140.119 20.8438 142.008 20.8438V18.8438C139.521 18.8438 137.359 19.8344 135.562 21.7349L137.016 23.1089ZM142.008 20.8438C142.905 20.8438 143.57 21.0885 144.08 21.5206L145.373 19.9951C144.445 19.2084 143.298 18.8438 142.008 18.8438V20.8438ZM144.09 21.5288C144.626 21.972 144.984 22.554 145.157 23.3218L147.108 22.8813C146.844 21.7116 146.264 20.7312 145.363 19.9869L144.09 21.5288ZM147.101 23.3499L147.805 20.6078L145.867 20.111L145.164 22.8532L147.101 23.3499ZM142.922 20.8594C141.703 20.8594 140.614 21.3837 139.674 22.2867L141.06 23.7289C141.714 23.1007 142.328 22.8594 142.922 22.8594V20.8594ZM139.675 22.2864C138.782 23.1435 138.102 24.1821 137.631 25.3856L139.494 26.1144C139.867 25.1617 140.39 24.3721 141.06 23.7292L139.675 22.2864ZM137.633 25.381C137.17 26.5462 136.93 27.7103 136.93 28.8672H138.93C138.93 27.9928 139.111 27.0788 139.492 26.119L137.633 25.381ZM136.93 28.8672C136.93 30.021 137.178 31.0609 137.767 31.9016L139.405 30.7547C139.119 30.3454 138.93 29.7446 138.93 28.8672H136.93ZM137.776 31.9151C138.455 32.8518 139.477 33.2656 140.648 33.2656V31.2656C139.977 31.2656 139.623 31.0545 139.396 30.7412L137.776 31.9151ZM140.648 33.2656C141.93 33.2656 143.03 32.6741 143.927 31.6644L142.432 30.3356C141.83 31.0134 141.242 31.2656 140.648 31.2656V33.2656ZM143.932 31.6585C145.52 29.8444 146.312 27.6783 146.312 25.2109H144.312C144.312 27.2123 143.684 28.9056 142.427 30.3415L143.932 31.6585ZM146.312 25.2109C146.312 24.0051 146.103 22.9212 145.529 22.1166C144.911 21.2497 143.982 20.8594 142.922 20.8594V22.8594C143.455 22.8594 143.722 23.0277 143.901 23.278C144.124 23.5905 144.312 24.1824 144.312 25.2109H146.312ZM157.031 20.3594V21.3594H157.76L157.983 20.6658L157.031 20.3594ZM161.953 7.79688L162.034 6.80011L161.358 6.74563L161.057 7.35298L161.953 7.79688ZM164.859 8.03125L165.805 8.35633L166.224 7.13804L164.94 7.03449L164.859 8.03125ZM163.594 11.6406L162.651 11.3082L162.649 11.3139L163.594 11.6406ZM160.781 20.3594L159.814 20.1058L159.485 21.3594H160.781V20.3594ZM164.461 20.3594L165.433 20.595L165.732 19.3594H164.461V20.3594ZM164.086 21.9062V22.9062H164.872L165.058 22.1419L164.086 21.9062ZM160.289 21.9062V20.9062H159.562L159.338 21.5981L160.289 21.9062ZM158.953 31.3281L159.4 32.2226L159.42 32.2128L159.439 32.2023L158.953 31.3281ZM161.672 27.9062L162.342 27.1639L161.49 26.3949L160.845 27.3443L161.672 27.9062ZM162.633 28.7734L163.509 29.2548L163.89 28.5612L163.303 28.031L162.633 28.7734ZM159.398 33.0156L160.031 33.7901L160.038 33.7847L159.398 33.0156ZM155.016 33.625L154.204 34.2086L154.21 34.2169L154.216 34.225L155.016 33.625ZM156.562 21.9062L157.519 22.1987L157.914 20.9062H156.562V21.9062ZM154.102 21.9062L153.13 21.6706L152.83 22.9062H154.102V21.9062ZM154.477 20.3594V19.3594H153.69L153.505 20.1238L154.477 20.3594ZM157.983 20.6658C159.583 15.696 161.206 11.5579 162.849 8.24077L161.057 7.35298C159.357 10.7858 157.698 15.0227 156.079 20.053L157.983 20.6658ZM161.873 8.79364L164.779 9.02801L164.94 7.03449L162.034 6.80011L161.873 8.79364ZM163.914 7.70617C163.743 8.20169 163.323 9.40071 162.651 11.3082L164.537 11.973C165.208 10.068 165.632 8.86081 165.805 8.35633L163.914 7.70617ZM162.649 11.3139C161.197 15.5141 160.247 18.4544 159.814 20.1058L161.749 20.6129C162.159 19.0456 163.085 16.1734 164.539 11.9674L162.649 11.3139ZM160.781 21.3594H164.461V19.3594H160.781V21.3594ZM163.489 20.1238L163.114 21.6706L165.058 22.1419L165.433 20.595L163.489 20.1238ZM164.086 20.9062H160.289V22.9062H164.086V20.9062ZM159.338 21.5981C158.617 23.8242 158.071 25.6285 157.705 27.0048C157.351 28.3379 157.133 29.38 157.133 30.0156H159.133C159.133 29.6825 159.274 28.8886 159.638 27.5187C159.991 26.1919 160.524 24.4258 161.24 22.2144L159.338 21.5981ZM157.133 30.0156C157.133 30.5077 157.156 30.9442 157.222 31.2809C157.253 31.4405 157.309 31.66 157.43 31.8642C157.552 32.0705 157.862 32.4453 158.414 32.4453V30.4453C158.619 30.4453 158.8 30.5153 158.936 30.6138C159.059 30.7031 159.124 30.7999 159.152 30.8477C159.202 30.9328 159.2 30.9736 159.184 30.8949C159.157 30.755 159.133 30.4767 159.133 30.0156H157.133ZM158.414 32.4453C158.747 32.4453 159.084 32.3806 159.4 32.2226L158.506 30.4337C158.506 30.4338 158.505 30.4343 158.502 30.4352C158.5 30.4361 158.495 30.4374 158.489 30.4388C158.476 30.4417 158.452 30.4453 158.414 30.4453V32.4453ZM159.439 32.2023C159.679 32.069 159.898 31.8648 160.08 31.6772C160.276 31.4735 160.495 31.2178 160.732 30.919C161.208 30.3204 161.798 29.5002 162.499 28.4682L160.845 27.3443C160.155 28.3592 159.597 29.1328 159.166 29.6748C158.951 29.9463 158.776 30.1476 158.641 30.2877C158.49 30.4438 158.438 30.4701 158.467 30.454L159.439 32.2023ZM161.002 28.6486L161.963 29.5158L163.303 28.031L162.342 27.1639L161.002 28.6486ZM161.756 28.2921C160.742 30.1387 159.736 31.4348 158.759 32.2465L160.038 33.7847C161.279 32.7527 162.43 31.2207 163.509 29.2548L161.756 28.2921ZM158.766 32.2412C157.685 33.1241 157.006 33.375 156.656 33.375V35.375C157.744 35.375 158.893 34.7196 160.031 33.7901L158.766 32.2412ZM156.656 33.375C156.198 33.375 155.972 33.2331 155.816 33.025L154.216 34.225C154.81 35.0169 155.677 35.375 156.656 35.375V33.375ZM155.828 33.0414C155.62 32.7522 155.477 32.3315 155.477 31.7031H153.477C153.477 32.6372 153.693 33.4978 154.204 34.2086L155.828 33.0414ZM155.477 31.7031C155.477 29.8836 156.128 26.7461 157.519 22.1987L155.606 21.6138C154.216 26.1601 153.477 29.5539 153.477 31.7031H155.477ZM156.562 20.9062H154.102V22.9062H156.562V20.9062ZM155.073 22.1419L155.448 20.595L153.505 20.1238L153.13 21.6706L155.073 22.1419ZM154.477 21.3594H157.031V19.3594H154.477V21.3594ZM173.695 24.0625L174.395 24.7769L174.402 24.7696L173.695 24.0625ZM171.492 26.8281L172.329 27.376L172.333 27.3689L171.492 26.8281ZM168 32.875L168.879 33.3513L168.884 33.3429L168.888 33.3344L168 32.875ZM167.391 34V35H167.986L168.27 34.4763L167.391 34ZM164.016 34L163.025 33.8659L162.871 35H164.016V34ZM170.297 9.36719L171.193 9.81063L171.196 9.80447L170.297 9.36719ZM176.016 1.79688L176.434 0.888566L175.888 0.637257L175.41 1.00105L176.016 1.79688ZM177.797 2.61719L178.504 3.32429L179.519 2.30931L178.215 1.70888L177.797 2.61719ZM173.18 11.4531L172.231 11.1369L172.23 11.139L173.18 11.4531ZM168.539 28.8672L167.564 28.6431L169.397 29.3817L168.539 28.8672ZM169.102 27.8828L168.235 27.3838L168.23 27.3926L169.102 27.8828ZM169.781 26.7344L170.629 27.2644L170.636 27.253L170.643 27.2414L169.781 26.7344ZM170.484 25.5625L169.641 25.0256L169.635 25.0348L169.629 25.0442L170.484 25.5625ZM171.305 24.3438L172.11 24.9369L172.117 24.9272L172.124 24.9172L171.305 24.3438ZM172.148 23.1953L171.365 22.5739L171.358 22.5824L171.352 22.5909L172.148 23.1953ZM174.07 21.2266L174.71 21.9948L174.72 21.9871L174.729 21.9791L174.07 21.2266ZM175.148 20.4531L174.694 19.5622L174.682 19.5686L174.67 19.5752L175.148 20.4531ZM179.742 20.5938L179.001 21.2653L179.007 21.2715L179.013 21.2777L179.742 20.5938ZM179.273 26.875L180.204 27.2413L180.205 27.2389L179.273 26.875ZM181.453 28.2812L182.134 27.5491L181.275 26.7497L180.622 27.725L181.453 28.2812ZM182.461 29.2188L183.325 29.7216L183.727 29.0309L183.142 28.4866L182.461 29.2188ZM179.32 33.0859L178.702 32.2996L178.697 32.304L179.32 33.0859ZM175.492 31.8438C175.492 31.2253 175.76 30.0686 176.416 28.2727L174.537 27.5866C173.881 29.3845 173.492 30.8372 173.492 31.8438H175.492ZM176.416 28.2727C177.07 26.4826 177.461 25.049 177.461 24.0859H175.461C175.461 24.6541 175.196 25.783 174.537 27.5866L176.416 28.2727ZM177.461 24.0859C177.461 23.6093 177.383 23.0735 177.075 22.6336C176.722 22.1286 176.185 21.9141 175.641 21.9141V23.9141C175.658 23.9141 175.626 23.917 175.57 23.8902C175.508 23.8609 175.462 23.8171 175.437 23.7805C175.415 23.7502 175.423 23.7469 175.436 23.8005C175.448 23.8542 175.461 23.9458 175.461 24.0859H177.461ZM175.641 21.9141C174.676 21.9141 173.774 22.5696 172.988 23.3554L174.402 24.7696C175.148 24.0242 175.542 23.9141 175.641 23.9141V21.9141ZM172.996 23.3481C172.167 24.1602 171.386 25.1435 170.651 26.2874L172.333 27.3689C173.004 26.3253 173.693 25.4648 174.395 24.7769L172.996 23.3481ZM170.656 26.2803C169.477 28.0796 168.296 30.1256 167.112 32.4156L168.888 33.3344C170.048 31.0931 171.195 29.1079 172.329 27.376L170.656 26.2803ZM167.121 32.3987L166.511 33.5237L168.27 34.4763L168.879 33.3513L167.121 32.3987ZM167.391 33H164.016V35H167.391V33ZM165.007 34.1341C165.771 28.4858 166.499 24.3467 167.187 21.6879L165.251 21.1871C164.532 23.9658 163.791 28.2017 163.025 33.8659L165.007 34.1341ZM167.187 21.6879C167.886 18.9835 168.552 16.6865 169.183 14.7928L167.286 14.1603C166.636 16.1104 165.957 18.454 165.251 21.1871L167.187 21.6879ZM169.183 14.7928C169.812 12.9053 170.483 11.246 171.193 9.81062L169.401 8.92375C168.642 10.4572 167.938 12.2041 167.286 14.1603L169.183 14.7928ZM171.196 9.80447C172.81 6.48636 174.629 4.10841 176.621 2.5927L175.41 1.00105C173.09 2.76659 171.097 5.43551 169.398 8.9299L171.196 9.80447ZM175.597 2.70518L177.379 3.5255L178.215 1.70888L176.434 0.888566L175.597 2.70518ZM177.09 1.91008C175.249 3.75082 173.65 6.87872 172.231 11.1369L174.128 11.7694C175.521 7.59003 177.001 4.8273 178.504 3.32429L177.09 1.91008ZM172.23 11.139C170.825 15.3853 169.27 21.2246 167.564 28.6431L169.514 29.0913C171.214 21.6973 172.753 15.9272 174.129 11.7672L172.23 11.139ZM169.397 29.3817C169.499 29.2113 169.693 28.8706 169.973 28.3731L168.23 27.3926C167.947 27.895 167.767 28.2106 167.682 28.3527L169.397 29.3817ZM169.968 28.3818C170.264 27.8684 170.483 27.4984 170.629 27.2644L168.933 26.2044C168.767 26.4703 168.533 26.866 168.235 27.3838L169.968 28.3818ZM170.643 27.2414C170.796 26.9816 171.028 26.5955 171.34 26.0808L169.629 25.0442C169.316 25.5608 169.079 25.9559 168.919 26.2274L170.643 27.2414ZM171.328 26.0994C171.651 25.5923 171.91 25.2075 172.11 24.9369L170.5 23.7506C170.262 24.0737 169.974 24.5015 169.641 25.0256L171.328 26.0994ZM172.124 24.9172C172.333 24.6189 172.606 24.2471 172.945 23.7997L171.352 22.5909C171.004 23.0498 170.714 23.4436 170.485 23.7703L172.124 24.9172ZM172.932 23.8167C173.279 23.3795 173.565 23.0525 173.793 22.8243L172.379 21.4101C172.076 21.7131 171.737 22.1049 171.365 22.5739L172.932 23.8167ZM173.793 22.8243C174.049 22.5686 174.354 22.2921 174.71 21.9948L173.43 20.4583C173.037 20.786 172.686 21.1033 172.379 21.4101L173.793 22.8243ZM174.729 21.9791C175.063 21.6869 175.362 21.4755 175.627 21.331L174.67 19.5752C174.247 19.8058 173.828 20.11 173.412 20.474L174.729 21.9791ZM175.603 21.344C176.257 21.0105 176.953 20.8438 177.703 20.8438V18.8438C176.641 18.8438 175.634 19.0833 174.694 19.5622L175.603 21.344ZM177.703 20.8438C178.428 20.8438 178.796 21.0393 179.001 21.2653L180.483 19.9222C179.782 19.1482 178.79 18.8438 177.703 18.8438V20.8438ZM179.013 21.2777C179.27 21.5518 179.445 21.958 179.445 22.6094H181.445C181.445 21.5733 181.152 20.6357 180.472 19.9098L179.013 21.2777ZM179.445 22.6094C179.445 23.2418 179.127 24.5012 178.342 26.5111L180.205 27.2389C180.982 25.2488 181.445 23.6645 181.445 22.6094H179.445ZM178.343 26.5087C177.949 27.51 177.647 28.3361 177.442 28.9797C177.252 29.5767 177.102 30.1425 177.102 30.5547H179.102C179.102 30.5608 179.101 30.5422 179.109 30.4901C179.116 30.4405 179.129 30.3731 179.149 30.2856C179.19 30.1096 179.254 29.8783 179.347 29.5867C179.533 29.0038 179.817 28.2243 180.204 27.2413L178.343 26.5087ZM177.102 30.5547C177.102 30.8453 177.135 31.2185 177.313 31.5526C177.41 31.7346 177.56 31.9227 177.783 32.0619C178.008 32.203 178.252 32.2578 178.477 32.2578V30.2578C178.576 30.2578 178.71 30.2833 178.842 30.3659C178.971 30.4464 179.043 30.5467 179.078 30.6114C179.109 30.6711 179.113 30.7051 179.11 30.6873C179.107 30.6718 179.102 30.6302 179.102 30.5547H177.102ZM178.477 32.2578C178.888 32.2578 179.254 32.1054 179.547 31.9286C179.847 31.7483 180.138 31.5026 180.42 31.2208C180.983 30.6576 181.605 29.8518 182.284 28.8375L180.622 27.725C179.973 28.695 179.435 29.3776 179.006 29.8066C178.792 30.0208 178.629 30.1472 178.516 30.215C178.398 30.2862 178.393 30.2578 178.477 30.2578V32.2578ZM180.772 29.0134L181.78 29.9509L183.142 28.4866L182.134 27.5491L180.772 29.0134ZM181.597 28.7159C180.635 30.3686 179.664 31.5441 178.702 32.2996L179.938 33.8723C181.164 32.909 182.287 31.5064 183.325 29.7216L181.597 28.7159ZM178.697 32.304C177.651 33.1375 176.992 33.375 176.648 33.375V35.375C177.712 35.375 178.833 34.7531 179.944 33.8679L178.697 32.304ZM176.648 33.375C176.191 33.375 175.962 33.2407 175.814 33.068L174.295 34.3695C174.897 35.0718 175.731 35.375 176.648 35.375V33.375ZM175.814 33.068C175.647 32.8737 175.492 32.5144 175.492 31.8438H173.492C173.492 32.7981 173.712 33.6888 174.295 34.3695L175.814 33.068Z" fill="#FED136"/>
</svg>
